<?xml version="1.0" standalone="no"?><!DOCTYPE svg PUBLIC "-//W3C//DTD SVG 1.1//EN" "http://www.w3.org/Graphics/SVG/1.1/DTD/svg11.dtd"><svg t="1776322516481" class="icon" viewBox="0 0 1024 1024" version="1.1" xmlns="http://www.w3.org/2000/svg" p-id="7114" xmlns:xlink="http://www.w3.org/1999/xlink" width="200" height="200"><path d="M951.9 323.4c-6.8-7.2-16.5-11.4-26.4-11.4h-56.6v-69.8c0-24.4-19.9-44.3-44.3-44.3H562.8l-18.7-59.5-0.6-1.4c-6.9-16.6-22.9-27.3-40.9-27.3H198.7c-24.4 0-44.3 19.9-44.3 44.3v158H100c-10 0-19.6 4.2-26.4 11.4-6.8 7.2-10.4 17.1-9.8 27.1l30.8 523.8c1.1 19.2 17.1 34.2 36.3 34.2H896c19.2 0 35.2-15.1 36.3-34.3L962 350.4c0.4-10-3.2-19.8-10.1-27zM224.4 179.6h259.3l18.7 59.5 0.6 1.4c6.9 16.6 22.9 27.3 40.9 27.3h255V312H224.4V179.6z m639.7 658.8H162.5L135.7 382h754.2l-25.8 456.4z" p-id="7115"></path><path d="M353.8 537.3h312.1c19.3 0 35-15.7 35-35s-15.7-35-35-35H353.8c-19.3 0-35 15.7-35 35s15.7 35 35 35z" p-id="7116"></path></svg>